<svg width="128" height="56" viewBox="0 0 128 56" fill="none" xmlns="http://www.w3.org/2000/svg">
<rect width="128" height="56" rx="5" fill="#EE5514"/>
<path d="M37.152 28.288C37.7493 28.3947 38.256 28.7093 38.672 29.232C39.088 29.7547 39.296 30.3467 39.296 31.008C39.296 31.5733 39.1467 32.0853 38.848 32.544C38.56 32.992 38.1387 33.3493 37.584 33.616C37.0293 33.872 36.384 34 35.648 34H31.2V22.88H35.44C36.1973 22.88 36.848 23.008 37.392 23.264C37.936 23.52 38.3467 23.8667 38.624 24.304C38.9013 24.7307 39.04 25.2107 39.04 25.744C39.04 26.384 38.8693 26.9173 38.528 27.344C38.1867 27.7707 37.728 28.0853 37.152 28.288ZM33.024 27.552H35.28C35.8773 27.552 36.3413 27.4187 36.672 27.152C37.0133 26.8747 37.184 26.48 37.184 25.968C37.184 25.4667 37.0133 25.0773 36.672 24.8C36.3413 24.512 35.8773 24.368 35.28 24.368H33.024V27.552ZM35.488 32.512C36.1067 32.512 36.592 32.3627 36.944 32.064C37.296 31.7653 37.472 31.3493 37.472 30.816C37.472 30.272 37.2853 29.84 36.912 29.52C36.5387 29.2 36.0427 29.04 35.424 29.04H33.024V32.512H35.488ZM49.2621 25.184V34H47.4381V32.96C47.1501 33.3227 46.7715 33.6107 46.3021 33.824C45.8435 34.0267 45.3528 34.128 44.8301 34.128C44.1368 34.128 43.5128 33.984 42.9581 33.696C42.4141 33.408 41.9821 32.9813 41.6621 32.416C41.3528 31.8507 41.1981 31.168 41.1981 30.368V25.184H43.0061V30.096C43.0061 30.8853 43.2035 31.4933 43.5981 31.92C43.9928 32.336 44.5315 32.544 45.2141 32.544C45.8968 32.544 46.4355 32.336 46.8301 31.92C47.2355 31.4933 47.4381 30.8853 47.4381 30.096V25.184H49.2621ZM59.6048 25.184L54.1968 38.144H52.3088L54.1008 33.856L50.6288 25.184H52.6608L55.1408 31.904L57.7168 25.184H59.6048ZM69.5855 25.04C70.2788 25.04 70.8975 25.184 71.4415 25.472C71.9962 25.76 72.4282 26.1867 72.7375 26.752C73.0468 27.3173 73.2015 28 73.2015 28.8V34H71.3935V29.072C71.3935 28.2827 71.1962 27.68 70.8015 27.264C70.4068 26.8373 69.8682 26.624 69.1855 26.624C68.5028 26.624 67.9588 26.8373 67.5535 27.264C67.1588 27.68 66.9615 28.2827 66.9615 29.072V34H65.1375V25.184H66.9615V26.192C67.2602 25.8293 67.6388 25.5467 68.0975 25.344C68.5668 25.1413 69.0628 25.04 69.5855 25.04ZM79.3521 34.144C78.5201 34.144 77.7681 33.9573 77.0961 33.584C76.4241 33.2 75.8961 32.6667 75.5121 31.984C75.1281 31.2907 74.9361 30.4907 74.9361 29.584C74.9361 28.688 75.1335 27.8933 75.5281 27.2C75.9228 26.5067 76.4615 25.9733 77.1441 25.6C77.8268 25.2267 78.5895 25.04 79.4321 25.04C80.2748 25.04 81.0375 25.2267 81.7201 25.6C82.4028 25.9733 82.9415 26.5067 83.3361 27.2C83.7308 27.8933 83.9281 28.688 83.9281 29.584C83.9281 30.48 83.7255 31.2747 83.3201 31.968C82.9148 32.6613 82.3601 33.2 81.6561 33.584C80.9628 33.9573 80.1948 34.144 79.3521 34.144ZM79.3521 32.56C79.8215 32.56 80.2588 32.448 80.6641 32.224C81.0801 32 81.4161 31.664 81.6721 31.216C81.9281 30.768 82.0561 30.224 82.0561 29.584C82.0561 28.944 81.9335 28.4053 81.6881 27.968C81.4428 27.52 81.1175 27.184 80.7121 26.96C80.3068 26.736 79.8695 26.624 79.4001 26.624C78.9308 26.624 78.4935 26.736 78.0881 26.96C77.6935 27.184 77.3788 27.52 77.1441 27.968C76.9095 28.4053 76.7921 28.944 76.7921 29.584C76.7921 30.5333 77.0321 31.2693 77.5121 31.792C78.0028 32.304 78.6161 32.56 79.3521 32.56ZM97.5713 25.184L94.8353 34H92.9153L91.1393 27.488L89.3633 34H87.4433L84.6913 25.184H86.5473L88.3873 32.272L90.2593 25.184H92.1633L93.9553 32.24L95.7793 25.184H97.5713Z" fill="white"/>
</svg>
