<svg width="137" height="59" viewBox="0 0 137 59" fill="none" xmlns="http://www.w3.org/2000/svg">
<rect width="137" height="59" rx="5" fill="#EE5514"/>
<path d="M38.046 29.574C38.718 29.694 39.288 30.048 39.756 30.636C40.224 31.224 40.458 31.89 40.458 32.634C40.458 33.27 40.29 33.846 39.954 34.362C39.63 34.866 39.156 35.268 38.532 35.568C37.908 35.856 37.182 36 36.354 36H31.35V23.49H36.12C36.972 23.49 37.704 23.634 38.316 23.922C38.928 24.21 39.39 24.6 39.702 25.092C40.014 25.572 40.17 26.112 40.17 26.712C40.17 27.432 39.978 28.032 39.594 28.512C39.21 28.992 38.694 29.346 38.046 29.574ZM33.402 28.746H35.94C36.612 28.746 37.134 28.596 37.506 28.296C37.89 27.984 38.082 27.54 38.082 26.964C38.082 26.4 37.89 25.962 37.506 25.65C37.134 25.326 36.612 25.164 35.94 25.164H33.402V28.746ZM36.174 34.326C36.87 34.326 37.416 34.158 37.812 33.822C38.208 33.486 38.406 33.018 38.406 32.418C38.406 31.806 38.196 31.32 37.776 30.96C37.356 30.6 36.798 30.42 36.102 30.42H33.402V34.326H36.174ZM51.6699 26.082V36H49.6179V34.83C49.2939 35.238 48.8679 35.562 48.3399 35.802C47.8239 36.03 47.2719 36.144 46.6839 36.144C45.9039 36.144 45.2019 35.982 44.5779 35.658C43.9659 35.334 43.4799 34.854 43.1199 34.218C42.7719 33.582 42.5979 32.814 42.5979 31.914V26.082H44.6319V31.608C44.6319 32.496 44.8539 33.18 45.2979 33.66C45.7419 34.128 46.3479 34.362 47.1159 34.362C47.8839 34.362 48.4899 34.128 48.9339 33.66C49.3899 33.18 49.6179 32.496 49.6179 31.608V26.082H51.6699ZM63.3053 26.082L57.2213 40.662H55.0973L57.1133 35.838L53.2073 26.082H55.4933L58.2833 33.642L61.1813 26.082H63.3053ZM74.5337 25.92C75.3137 25.92 76.0097 26.082 76.6217 26.406C77.2457 26.73 77.7317 27.21 78.0797 27.846C78.4277 28.482 78.6017 29.25 78.6017 30.15V36H76.5677V30.456C76.5677 29.568 76.3457 28.89 75.9017 28.422C75.4577 27.942 74.8517 27.702 74.0837 27.702C73.3157 27.702 72.7037 27.942 72.2477 28.422C71.8037 28.89 71.5817 29.568 71.5817 30.456V36H69.5297V26.082H71.5817V27.216C71.9177 26.808 72.3437 26.49 72.8597 26.262C73.3877 26.034 73.9457 25.92 74.5337 25.92ZM85.5211 36.162C84.5851 36.162 83.7391 35.952 82.9831 35.532C82.2271 35.1 81.6331 34.5 81.2011 33.732C80.7691 32.952 80.5531 32.052 80.5531 31.032C80.5531 30.024 80.7751 29.13 81.2191 28.35C81.6631 27.57 82.2691 26.97 83.0371 26.55C83.8051 26.13 84.6631 25.92 85.6111 25.92C86.5591 25.92 87.4171 26.13 88.1851 26.55C88.9531 26.97 89.5591 27.57 90.0031 28.35C90.4471 29.13 90.6691 30.024 90.6691 31.032C90.6691 32.04 90.4411 32.934 89.9851 33.714C89.5291 34.494 88.9051 35.1 88.1131 35.532C87.3331 35.952 86.4691 36.162 85.5211 36.162ZM85.5211 34.38C86.0491 34.38 86.5411 34.254 86.9971 34.002C87.4651 33.75 87.8431 33.372 88.1311 32.868C88.4191 32.364 88.5631 31.752 88.5631 31.032C88.5631 30.312 88.4251 29.706 88.1491 29.214C87.8731 28.71 87.5071 28.332 87.0511 28.08C86.5951 27.828 86.1031 27.702 85.5751 27.702C85.0471 27.702 84.5551 27.828 84.0991 28.08C83.6551 28.332 83.3011 28.71 83.0371 29.214C82.7731 29.706 82.6411 30.312 82.6411 31.032C82.6411 32.1 82.9111 32.928 83.4511 33.516C84.0031 34.092 84.6931 34.38 85.5211 34.38ZM106.018 26.082L102.94 36H100.78L98.7817 28.674L96.7837 36H94.6237L91.5277 26.082H93.6157L95.6857 34.056L97.7917 26.082H99.9337L101.95 34.02L104.002 26.082H106.018Z" fill="white"/>
</svg>
