<svg width="320" height="52" viewBox="0 0 320 52" fill="none" xmlns="http://www.w3.org/2000/svg">
<path opacity="0.6" d="M30.976 21.312V31H29.702V23.776L26.482 31H25.586L22.352 23.762V31H21.078V21.312H22.45L26.034 29.32L29.618 21.312H30.976ZM32.6606 27.136C32.6606 26.352 32.8193 25.666 33.1366 25.078C33.4539 24.4807 33.8879 24.0187 34.4386 23.692C34.9986 23.3653 35.6193 23.202 36.3006 23.202C36.9726 23.202 37.5559 23.3467 38.0506 23.636C38.5453 23.9253 38.9139 24.2893 39.1566 24.728V23.328H40.4446V31H39.1566V29.572C38.9046 30.02 38.5266 30.3933 38.0226 30.692C37.5279 30.9813 36.9493 31.126 36.2866 31.126C35.6053 31.126 34.9893 30.958 34.4386 30.622C33.8879 30.286 33.4539 29.8147 33.1366 29.208C32.8193 28.6013 32.6606 27.9107 32.6606 27.136ZM39.1566 27.15C39.1566 26.5713 39.0399 26.0673 38.8066 25.638C38.5733 25.2087 38.2559 24.882 37.8546 24.658C37.4626 24.4247 37.0286 24.308 36.5526 24.308C36.0766 24.308 35.6426 24.42 35.2506 24.644C34.8586 24.868 34.5459 25.1947 34.3126 25.624C34.0793 26.0533 33.9626 26.5573 33.9626 27.136C33.9626 27.724 34.0793 28.2373 34.3126 28.676C34.5459 29.1053 34.8586 29.4367 35.2506 29.67C35.6426 29.894 36.0766 30.006 36.5526 30.006C37.0286 30.006 37.4626 29.894 37.8546 29.67C38.2559 29.4367 38.5733 29.1053 38.8066 28.676C39.0399 28.2373 39.1566 27.7287 39.1566 27.15ZM43.2555 22.082C43.0129 22.082 42.8075 21.998 42.6395 21.83C42.4715 21.662 42.3875 21.4567 42.3875 21.214C42.3875 20.9713 42.4715 20.766 42.6395 20.598C42.8075 20.43 43.0129 20.346 43.2555 20.346C43.4889 20.346 43.6849 20.43 43.8435 20.598C44.0115 20.766 44.0955 20.9713 44.0955 21.214C44.0955 21.4567 44.0115 21.662 43.8435 21.83C43.6849 21.998 43.4889 22.082 43.2555 22.082ZM43.8715 23.328V31H42.5975V23.328H43.8715ZM47.3168 20.64V31H46.0428V20.64H47.3168ZM52.7446 27.136C52.7446 26.352 52.9032 25.666 53.2206 25.078C53.5379 24.4807 53.9719 24.0187 54.5226 23.692C55.0826 23.3653 55.7032 23.202 56.3846 23.202C57.0566 23.202 57.6399 23.3467 58.1346 23.636C58.6292 23.9253 58.9979 24.2893 59.2406 24.728V23.328H60.5286V31H59.2406V29.572C58.9886 30.02 58.6106 30.3933 58.1066 30.692C57.6119 30.9813 57.0332 31.126 56.3706 31.126C55.6892 31.126 55.0732 30.958 54.5226 30.622C53.9719 30.286 53.5379 29.8147 53.2206 29.208C52.9032 28.6013 52.7446 27.9107 52.7446 27.136ZM59.2406 27.15C59.2406 26.5713 59.1239 26.0673 58.8906 25.638C58.6572 25.2087 58.3399 24.882 57.9386 24.658C57.5466 24.4247 57.1126 24.308 56.6366 24.308C56.1606 24.308 55.7266 24.42 55.3346 24.644C54.9426 24.868 54.6299 25.1947 54.3966 25.624C54.1632 26.0533 54.0466 26.5573 54.0466 27.136C54.0466 27.724 54.1632 28.2373 54.3966 28.676C54.6299 29.1053 54.9426 29.4367 55.3346 29.67C55.7266 29.894 56.1606 30.006 56.6366 30.006C57.1126 30.006 57.5466 29.894 57.9386 29.67C58.3399 29.4367 58.6572 29.1053 58.8906 28.676C59.1239 28.2373 59.2406 27.7287 59.2406 27.15ZM62.2055 27.136C62.2055 26.352 62.3642 25.666 62.6815 25.078C62.9988 24.4807 63.4328 24.0187 63.9835 23.692C64.5435 23.3653 65.1688 23.202 65.8595 23.202C66.4568 23.202 67.0122 23.342 67.5255 23.622C68.0388 23.8927 68.4308 24.252 68.7015 24.7V20.64H69.9895V31H68.7015V29.558C68.4495 30.0153 68.0762 30.3933 67.5815 30.692C67.0868 30.9813 66.5082 31.126 65.8455 31.126C65.1642 31.126 64.5435 30.958 63.9835 30.622C63.4328 30.286 62.9988 29.8147 62.6815 29.208C62.3642 28.6013 62.2055 27.9107 62.2055 27.136ZM68.7015 27.15C68.7015 26.5713 68.5848 26.0673 68.3515 25.638C68.1182 25.2087 67.8008 24.882 67.3995 24.658C67.0075 24.4247 66.5735 24.308 66.0975 24.308C65.6215 24.308 65.1875 24.42 64.7955 24.644C64.4035 24.868 64.0908 25.1947 63.8575 25.624C63.6242 26.0533 63.5075 26.5573 63.5075 27.136C63.5075 27.724 63.6242 28.2373 63.8575 28.676C64.0908 29.1053 64.4035 29.4367 64.7955 29.67C65.1875 29.894 65.6215 30.006 66.0975 30.006C66.5735 30.006 67.0075 29.894 67.3995 29.67C67.8008 29.4367 68.1182 29.1053 68.3515 28.676C68.5848 28.2373 68.7015 27.7287 68.7015 27.15ZM71.6665 27.136C71.6665 26.352 71.8251 25.666 72.1425 25.078C72.4598 24.4807 72.8938 24.0187 73.4445 23.692C74.0045 23.3653 74.6298 23.202 75.3205 23.202C75.9178 23.202 76.4731 23.342 76.9865 23.622C77.4998 23.8927 77.8918 24.252 78.1625 24.7V20.64H79.4505V31H78.1625V29.558C77.9105 30.0153 77.5371 30.3933 77.0425 30.692C76.5478 30.9813 75.9691 31.126 75.3065 31.126C74.6251 31.126 74.0045 30.958 73.4445 30.622C72.8938 30.286 72.4598 29.8147 72.1425 29.208C71.8251 28.6013 71.6665 27.9107 71.6665 27.136ZM78.1625 27.15C78.1625 26.5713 78.0458 26.0673 77.8125 25.638C77.5791 25.2087 77.2618 24.882 76.8605 24.658C76.4685 24.4247 76.0345 24.308 75.5585 24.308C75.0825 24.308 74.6485 24.42 74.2565 24.644C73.8645 24.868 73.5518 25.1947 73.3185 25.624C73.0851 26.0533 72.9685 26.5573 72.9685 27.136C72.9685 27.724 73.0851 28.2373 73.3185 28.676C73.5518 29.1053 73.8645 29.4367 74.2565 29.67C74.6485 29.894 75.0825 30.006 75.5585 30.006C76.0345 30.006 76.4685 29.894 76.8605 29.67C77.2618 29.4367 77.5791 29.1053 77.8125 28.676C78.0458 28.2373 78.1625 27.7287 78.1625 27.15ZM82.8774 24.574C83.1014 24.1353 83.4187 23.7947 83.8294 23.552C84.2494 23.3093 84.7581 23.188 85.3554 23.188V24.504H85.0194C83.5914 24.504 82.8774 25.2787 82.8774 26.828V31H81.6034V23.328H82.8774V24.574ZM93.826 26.87C93.826 27.1127 93.812 27.3693 93.784 27.64H87.652C87.6987 28.396 87.9554 28.9887 88.422 29.418C88.898 29.838 89.472 30.048 90.144 30.048C90.6947 30.048 91.152 29.922 91.516 29.67C91.8894 29.4087 92.1507 29.0633 92.3 28.634H93.672C93.4667 29.3713 93.056 29.9733 92.44 30.44C91.824 30.8973 91.0587 31.126 90.144 31.126C89.416 31.126 88.7627 30.9627 88.184 30.636C87.6147 30.3093 87.1667 29.8473 86.84 29.25C86.5134 28.6433 86.35 27.9433 86.35 27.15C86.35 26.3567 86.5087 25.6613 86.826 25.064C87.1434 24.4667 87.5867 24.0093 88.156 23.692C88.7347 23.3653 89.3974 23.202 90.144 23.202C90.872 23.202 91.516 23.3607 92.076 23.678C92.636 23.9953 93.0654 24.434 93.364 24.994C93.672 25.5447 93.826 26.17 93.826 26.87ZM92.51 26.604C92.51 26.1187 92.4027 25.7033 92.188 25.358C91.9734 25.0033 91.6794 24.7373 91.306 24.56C90.942 24.3733 90.536 24.28 90.088 24.28C89.444 24.28 88.8934 24.4853 88.436 24.896C87.988 25.3067 87.7314 25.876 87.666 26.604H92.51ZM98.2237 31.126C97.6357 31.126 97.1084 31.028 96.6417 30.832C96.175 30.6267 95.8064 30.3467 95.5357 29.992C95.265 29.628 95.1157 29.2127 95.0877 28.746H96.4037C96.441 29.1287 96.6184 29.4413 96.9357 29.684C97.2624 29.9267 97.687 30.048 98.2097 30.048C98.695 30.048 99.0777 29.9407 99.3577 29.726C99.6377 29.5113 99.7777 29.2407 99.7777 28.914C99.7777 28.578 99.6284 28.3307 99.3297 28.172C99.031 28.004 98.569 27.8407 97.9437 27.682C97.3744 27.5327 96.9077 27.3833 96.5437 27.234C96.189 27.0753 95.881 26.8467 95.6197 26.548C95.3677 26.24 95.2417 25.8387 95.2417 25.344C95.2417 24.952 95.3584 24.5927 95.5917 24.266C95.825 23.9393 96.1564 23.6827 96.5857 23.496C97.015 23.3 97.505 23.202 98.0557 23.202C98.905 23.202 99.591 23.4167 100.114 23.846C100.636 24.2753 100.916 24.8633 100.954 25.61H99.6797C99.6517 25.2087 99.4884 24.8867 99.1897 24.644C98.9004 24.4013 98.5084 24.28 98.0137 24.28C97.5564 24.28 97.1924 24.378 96.9217 24.574C96.651 24.77 96.5157 25.0267 96.5157 25.344C96.5157 25.596 96.595 25.806 96.7537 25.974C96.9217 26.1327 97.127 26.2633 97.3697 26.366C97.6217 26.4593 97.967 26.5667 98.4057 26.688C98.9564 26.8373 99.4044 26.9867 99.7497 27.136C100.095 27.276 100.389 27.4907 100.632 27.78C100.884 28.0693 101.014 28.4473 101.024 28.914C101.024 29.334 100.907 29.712 100.674 30.048C100.44 30.384 100.109 30.65 99.6797 30.846C99.2597 31.0327 98.7744 31.126 98.2237 31.126ZM105.538 31.126C104.95 31.126 104.423 31.028 103.956 30.832C103.489 30.6267 103.121 30.3467 102.85 29.992C102.579 29.628 102.43 29.2127 102.402 28.746H103.718C103.755 29.1287 103.933 29.4413 104.25 29.684C104.577 29.9267 105.001 30.048 105.524 30.048C106.009 30.048 106.392 29.9407 106.672 29.726C106.952 29.5113 107.092 29.2407 107.092 28.914C107.092 28.578 106.943 28.3307 106.644 28.172C106.345 28.004 105.883 27.8407 105.258 27.682C104.689 27.5327 104.222 27.3833 103.858 27.234C103.503 27.0753 103.195 26.8467 102.934 26.548C102.682 26.24 102.556 25.8387 102.556 25.344C102.556 24.952 102.673 24.5927 102.906 24.266C103.139 23.9393 103.471 23.6827 103.9 23.496C104.329 23.3 104.819 23.202 105.37 23.202C106.219 23.202 106.905 23.4167 107.428 23.846C107.951 24.2753 108.231 24.8633 108.268 25.61H106.994C106.966 25.2087 106.803 24.8867 106.504 24.644C106.215 24.4013 105.823 24.28 105.328 24.28C104.871 24.28 104.507 24.378 104.236 24.574C103.965 24.77 103.83 25.0267 103.83 25.344C103.83 25.596 103.909 25.806 104.068 25.974C104.236 26.1327 104.441 26.2633 104.684 26.366C104.936 26.4593 105.281 26.5667 105.72 26.688C106.271 26.8373 106.719 26.9867 107.064 27.136C107.409 27.276 107.703 27.4907 107.946 27.78C108.198 28.0693 108.329 28.4473 108.338 28.914C108.338 29.334 108.221 29.712 107.988 30.048C107.755 30.384 107.423 30.65 106.994 30.846C106.574 31.0327 106.089 31.126 105.538 31.126Z" fill="#1A0A03"/>
<rect x="0.5" y="0.5" width="318" height="51" rx="4.5" stroke="black" stroke-opacity="0.1"/>
<path d="M224 0H315C317.761 0 320 2.23858 320 5V47C320 49.7614 317.761 52 315 52H224V0Z" fill="#EE5514"/>
<path d="M258.256 31.098C257.603 31.098 257.015 30.986 256.492 30.762C255.969 30.5287 255.559 30.202 255.26 29.782C254.961 29.362 254.812 28.872 254.812 28.312H256.52C256.557 28.732 256.721 29.0773 257.01 29.348C257.309 29.6187 257.724 29.754 258.256 29.754C258.807 29.754 259.236 29.6233 259.544 29.362C259.852 29.0913 260.006 28.746 260.006 28.326C260.006 27.9993 259.908 27.7333 259.712 27.528C259.525 27.3227 259.287 27.164 258.998 27.052C258.718 26.94 258.326 26.8187 257.822 26.688C257.187 26.52 256.669 26.352 256.268 26.184C255.876 26.0067 255.54 25.736 255.26 25.372C254.98 25.008 254.84 24.5227 254.84 23.916C254.84 23.356 254.98 22.866 255.26 22.446C255.54 22.026 255.932 21.704 256.436 21.48C256.94 21.256 257.523 21.144 258.186 21.144C259.129 21.144 259.899 21.382 260.496 21.858C261.103 22.3247 261.439 22.9687 261.504 23.79H259.74C259.712 23.4353 259.544 23.132 259.236 22.88C258.928 22.628 258.522 22.502 258.018 22.502C257.561 22.502 257.187 22.6187 256.898 22.852C256.609 23.0853 256.464 23.4213 256.464 23.86C256.464 24.1587 256.553 24.406 256.73 24.602C256.917 24.7887 257.15 24.938 257.43 25.05C257.71 25.162 258.093 25.2833 258.578 25.414C259.222 25.5913 259.745 25.7687 260.146 25.946C260.557 26.1233 260.902 26.3987 261.182 26.772C261.471 27.136 261.616 27.626 261.616 28.242C261.616 28.7367 261.481 29.2033 261.21 29.642C260.949 30.0807 260.561 30.4353 260.048 30.706C259.544 30.9673 258.947 31.098 258.256 31.098ZM270.569 26.954C270.569 27.2433 270.551 27.5047 270.513 27.738H264.619C264.666 28.354 264.895 28.8487 265.305 29.222C265.716 29.5953 266.22 29.782 266.817 29.782C267.676 29.782 268.283 29.4227 268.637 28.704H270.359C270.126 29.4133 269.701 29.9967 269.085 30.454C268.479 30.902 267.723 31.126 266.817 31.126C266.08 31.126 265.417 30.9627 264.829 30.636C264.251 30.3 263.793 29.8333 263.457 29.236C263.131 28.6293 262.967 27.9293 262.967 27.136C262.967 26.3427 263.126 25.6473 263.443 25.05C263.77 24.4433 264.223 23.9767 264.801 23.65C265.389 23.3233 266.061 23.16 266.817 23.16C267.545 23.16 268.194 23.3187 268.763 23.636C269.333 23.9533 269.776 24.4013 270.093 24.98C270.411 25.5493 270.569 26.2073 270.569 26.954ZM268.903 26.45C268.894 25.862 268.684 25.3907 268.273 25.036C267.863 24.6813 267.354 24.504 266.747 24.504C266.197 24.504 265.725 24.6813 265.333 25.036C264.941 25.3813 264.708 25.8527 264.633 26.45H268.903ZM276.032 23.16C276.639 23.16 277.18 23.286 277.656 23.538C278.141 23.79 278.519 24.1633 278.79 24.658C279.061 25.1527 279.196 25.75 279.196 26.45V31H277.614V26.688C277.614 25.9973 277.441 25.47 277.096 25.106C276.751 24.7327 276.279 24.546 275.682 24.546C275.085 24.546 274.609 24.7327 274.254 25.106C273.909 25.47 273.736 25.9973 273.736 26.688V31H272.14V23.286H273.736V24.168C273.997 23.8507 274.329 23.6033 274.73 23.426C275.141 23.2487 275.575 23.16 276.032 23.16ZM280.7 27.108C280.7 26.3333 280.858 25.6473 281.176 25.05C281.502 24.4527 281.941 23.9907 282.492 23.664C283.052 23.328 283.672 23.16 284.354 23.16C284.858 23.16 285.352 23.272 285.838 23.496C286.332 23.7107 286.724 24 287.014 24.364V20.64H288.624V31H287.014V29.838C286.752 30.2113 286.388 30.5193 285.922 30.762C285.464 31.0047 284.937 31.126 284.34 31.126C283.668 31.126 283.052 30.958 282.492 30.622C281.941 30.2767 281.502 29.8007 281.176 29.194C280.858 28.578 280.7 27.8827 280.7 27.108ZM287.014 27.136C287.014 26.604 286.902 26.142 286.678 25.75C286.463 25.358 286.178 25.0593 285.824 24.854C285.469 24.6487 285.086 24.546 284.676 24.546C284.265 24.546 283.882 24.6487 283.528 24.854C283.173 25.05 282.884 25.344 282.66 25.736C282.445 26.1187 282.338 26.576 282.338 27.108C282.338 27.64 282.445 28.1067 282.66 28.508C282.884 28.9093 283.173 29.2173 283.528 29.432C283.892 29.6373 284.274 29.74 284.676 29.74C285.086 29.74 285.469 29.6373 285.824 29.432C286.178 29.2267 286.463 28.928 286.678 28.536C286.902 28.1347 287.014 27.668 287.014 27.136Z" fill="white"/>
</svg>
