<svg width="96" height="46" viewBox="0 0 96 46" fill="none" xmlns="http://www.w3.org/2000/svg">
<path d="M0.999993 5.15718L1.13663 6.3582L3.89802 6.88436L8.17522 8.62212L12.7091 11.0008L15.8925 12.7687L18.9467 13.8309L24.782 14.1826L22.885 16.7213L21.5662 20.6128H15.6501L12.1452 23.5055L8.28694 25.8547L8.25448 26.9788L8.3262 27.791L9.46004 27.6461L10.5456 26.898L14.9926 23.8694L24.3148 24.1985L28.2704 21.0619L30.3622 20.0979L33.6716 16.6496L35.8895 15.8064L38.3104 15.9589L41.0748 16.9395L48.5777 16.676L50.9556 15.0372L51.4681 13.3085V16.0472L52.2396 17.1795L60.0384 14.3948L60.9548 14.0301L63.2942 14.5374L65.7537 15.5014L67.0951 16.1672L68.3482 15.4448L67.625 14.0943L61.684 11.6824L57.1109 12.1165L56.4119 11.9232L58.5331 8.76404L58.823 8.18579L59.9319 7.43845L60.2701 8.2575L61.7165 8.30582L63.2844 7.73965L63.6218 8.07331L64.3933 8.20089L65.7438 6.79981L66.0647 6.01473L64.6508 4.3434L64.5866 3.50699L63.5577 2.47883L60.9216 1.96399L59.6987 1H58.9921L58.8638 1.70658L56.8694 1.77074L55.0055 2.92874L49.5235 3.51529L44.5564 6.2646L39.9576 7.68681L37.0633 8.77989L32.4978 9.74539L27.6921 9.85032L22.9975 10.9041L19.1219 11.1601L16.1635 10.3878L9.55742 7.11007L5.61765 5.69315L2.80569 5.08471L0.999993 5.15718Z" fill="#EE5514" stroke="#EE5514" stroke-width="1.5333" stroke-miterlimit="10"/>
<path d="M37.42 22.1409L36.4743 22.1633C36.4819 23.102 36.4897 24.0481 36.4976 25.0015C36.5202 25.9546 36.5428 26.9077 36.5655 27.8607L36.5884 28.8285L37.6661 28.8029C38.8244 28.7754 39.6601 28.4402 40.173 27.7972C40.6859 27.1542 40.9301 26.3195 40.9058 25.2931C40.8811 24.252 40.5762 23.4597 39.9912 22.9161C39.4208 22.3721 38.5637 22.1137 37.42 22.1409ZM31.6996 22.1885L31.675 21.1548L37.6134 21.014C39.6808 20.9649 41.2006 21.3323 42.1728 22.1161C43.1593 22.885 43.668 23.9219 43.699 25.2268C43.7185 26.0479 43.5313 26.8152 43.1374 27.5288C42.7579 28.2273 42.1111 28.7928 41.1971 29.2253C40.2978 29.6574 39.071 29.8919 37.5168 29.9288L36.615 29.9502C36.6317 30.654 36.6488 31.3724 36.6662 32.1055C36.6982 32.8383 36.7308 33.5931 36.7639 34.3699L38.7705 34.5423L38.7951 35.576L32.021 35.7367L31.9964 34.703L33.8392 34.4613C33.847 33.5515 33.8397 32.6274 33.8175 31.689C33.7952 30.7506 33.7729 29.8122 33.7507 28.8738L33.7283 27.928C33.7063 27.0043 33.6844 26.0806 33.6625 25.1568C33.6402 24.2184 33.6033 23.2804 33.5517 22.3427L31.6996 22.1885ZM53.781 21.6647L53.7565 20.631L59.035 20.5058L59.0595 21.5395L57.1953 21.8038L57.3664 29.0178C57.4029 30.5573 57.1979 31.8092 56.7513 32.7734C56.3194 33.7372 55.6981 34.4488 54.8874 34.9082C54.0767 35.3676 53.1142 35.6105 51.9999 35.6369C50.9295 35.6623 49.9791 35.4868 49.1486 35.1104C48.3181 34.7339 47.658 34.1188 47.1683 33.2648C46.6785 32.4108 46.4171 31.2874 46.3841 29.8945L46.3272 27.4971C46.3057 26.5881 46.2841 25.679 46.2625 24.7699C46.2406 23.8462 46.2042 22.9301 46.1533 22.0217L44.4336 21.8865L44.4091 20.8527L51.0952 20.6941L51.1198 21.7278L49.1015 21.9958C49.1081 22.8905 49.1148 23.7926 49.1217 24.7021C49.1433 25.6111 49.1649 26.5202 49.1864 27.4293L49.2271 29.1448C49.2553 30.3325 49.4097 31.2751 49.6903 31.9726C49.9706 32.6555 50.3636 33.145 50.8695 33.4411C51.3896 33.7222 52.0089 33.8542 52.7274 33.8371C53.8564 33.8103 54.7053 33.4161 55.2741 32.6544C55.8571 31.8777 56.1271 30.5803 56.084 28.7621L55.9201 21.856L53.781 21.6647ZM60.4102 35.0633L60.3856 34.0296L62.4243 33.6951L62.1399 21.7085L60.1767 21.513L60.1522 20.4793L65.0568 20.3629L69.6049 31.1921L73.3925 20.1652L78.2971 20.0488L78.3216 21.0825L76.5228 21.3233C76.5297 22.2327 76.537 23.1568 76.5446 24.0955C76.5665 25.0193 76.5888 25.9577 76.6114 26.9107L76.6338 27.8565C76.6561 28.7949 76.6783 29.7333 76.7006 30.6717C76.7372 31.5951 76.7737 32.5185 76.8103 33.4419L78.6625 33.596L78.687 34.6297L72.1988 34.7836L72.1743 33.7499L73.9066 33.4887C73.9144 32.579 73.9076 31.6769 73.8864 30.7825C73.8649 29.8734 73.8442 29.001 73.8243 28.1652L73.7222 22.9301L69.6476 34.8441L68.24 34.8775L63.3411 23.1764L63.5533 27.4846L63.6999 33.6649L65.5322 33.9075L65.5567 34.9412L60.4102 35.0633ZM85.8734 22.7079L83.9945 28.8482L88.0194 28.7527L85.8734 22.7079ZM79.7078 34.6055L79.6833 33.5718L81.4806 33.2651L85.76 19.7838L87.5635 19.741L92.4801 33.1142L93.9798 33.2546L94.0038 34.2663L87.6476 34.4171L87.6236 33.4054L89.5533 33.1176L88.4204 29.8875L83.6257 30.0013L82.6457 33.2154L84.5659 33.4559L84.5905 34.4896L79.7078 34.6055Z" fill="#1A0A03"/>
</svg>
