<svg width="526" height="51" viewBox="0 0 526 51" fill="none" xmlns="http://www.w3.org/2000/svg">
<path opacity="0.5" d="M32.4877 21.278V24.54H36.0437V25.59H32.4877V28.95H36.4637V30H31.2137V20.228H36.4637V21.278H32.4877ZM42.1295 22.188C43.0628 22.188 43.8188 22.4727 44.3975 23.042C44.9761 23.602 45.2655 24.414 45.2655 25.478V30H44.0055V25.66C44.0055 24.8947 43.8141 24.3113 43.4315 23.91C43.0488 23.4993 42.5261 23.294 41.8635 23.294C41.1915 23.294 40.6548 23.504 40.2535 23.924C39.8615 24.344 39.6655 24.9553 39.6655 25.758V30H38.3915V22.328H39.6655V23.42C39.9175 23.028 40.2581 22.7247 40.6875 22.51C41.1261 22.2953 41.6068 22.188 42.1295 22.188ZM48.9006 23.378V27.9C48.9006 28.2733 48.9799 28.5393 49.1386 28.698C49.2972 28.8473 49.5726 28.922 49.9646 28.922H50.9026V30H49.7546C49.0452 30 48.5132 29.8367 48.1586 29.51C47.8039 29.1833 47.6266 28.6467 47.6266 27.9V23.378H46.6326V22.328H47.6266V20.396H48.9006V22.328H50.9026V23.378H48.9006ZM59.4462 25.87C59.4462 26.1127 59.4322 26.3693 59.4042 26.64H53.2722C53.3188 27.396 53.5755 27.9887 54.0422 28.418C54.5182 28.838 55.0922 29.048 55.7642 29.048C56.3148 29.048 56.7722 28.922 57.1362 28.67C57.5095 28.4087 57.7708 28.0633 57.9202 27.634H59.2922C59.0868 28.3713 58.6762 28.9733 58.0602 29.44C57.4442 29.8973 56.6788 30.126 55.7642 30.126C55.0362 30.126 54.3828 29.9627 53.8042 29.636C53.2348 29.3093 52.7868 28.8473 52.4602 28.25C52.1335 27.6433 51.9702 26.9433 51.9702 26.15C51.9702 25.3567 52.1288 24.6613 52.4462 24.064C52.7635 23.4667 53.2068 23.0093 53.7762 22.692C54.3548 22.3653 55.0175 22.202 55.7642 22.202C56.4922 22.202 57.1362 22.3607 57.6962 22.678C58.2562 22.9953 58.6855 23.434 58.9842 23.994C59.2922 24.5447 59.4462 25.17 59.4462 25.87ZM58.1302 25.604C58.1302 25.1187 58.0228 24.7033 57.8082 24.358C57.5935 24.0033 57.2995 23.7373 56.9262 23.56C56.5622 23.3733 56.1562 23.28 55.7082 23.28C55.0642 23.28 54.5135 23.4853 54.0562 23.896C53.6082 24.3067 53.3515 24.876 53.2862 25.604H58.1302ZM62.4018 23.574C62.6258 23.1353 62.9431 22.7947 63.3538 22.552C63.7738 22.3093 64.2825 22.188 64.8798 22.188V23.504H64.5438C63.1158 23.504 62.4018 24.2787 62.4018 25.828V30H61.1278V22.328H62.4018V23.574ZM76.6909 22.328L72.0709 33.612H70.7549L72.2669 29.916L69.1729 22.328H70.5869L72.9949 28.544L75.3749 22.328H76.6909ZM81.3176 30.126C80.5989 30.126 79.9456 29.9627 79.3576 29.636C78.7789 29.3093 78.3216 28.8473 77.9856 28.25C77.6589 27.6433 77.4956 26.9433 77.4956 26.15C77.4956 25.366 77.6636 24.6753 77.9996 24.078C78.3449 23.4713 78.8116 23.0093 79.3996 22.692C79.9876 22.3653 80.6456 22.202 81.3736 22.202C82.1016 22.202 82.7596 22.3653 83.3476 22.692C83.9356 23.0093 84.3976 23.4667 84.7336 24.064C85.0789 24.6613 85.2516 25.3567 85.2516 26.15C85.2516 26.9433 85.0742 27.6433 84.7196 28.25C84.3742 28.8473 83.9029 29.3093 83.3056 29.636C82.7082 29.9627 82.0456 30.126 81.3176 30.126ZM81.3176 29.006C81.7749 29.006 82.2042 28.8987 82.6056 28.684C83.0069 28.4693 83.3289 28.1473 83.5716 27.718C83.8236 27.2887 83.9496 26.766 83.9496 26.15C83.9496 25.534 83.8282 25.0113 83.5856 24.582C83.3429 24.1527 83.0256 23.8353 82.6336 23.63C82.2416 23.4153 81.8169 23.308 81.3596 23.308C80.8929 23.308 80.4636 23.4153 80.0716 23.63C79.6889 23.8353 79.3809 24.1527 79.1476 24.582C78.9142 25.0113 78.7976 25.534 78.7976 26.15C78.7976 26.7753 78.9096 27.3027 79.1336 27.732C79.3669 28.1613 79.6749 28.4833 80.0576 28.698C80.4402 28.9033 80.8602 29.006 81.3176 29.006ZM93.7306 22.328V30H92.4566V28.866C92.214 29.258 91.8733 29.566 91.4346 29.79C91.0053 30.0047 90.5293 30.112 90.0066 30.112C89.4093 30.112 88.8726 29.9907 88.3966 29.748C87.9206 29.496 87.5426 29.1227 87.2626 28.628C86.992 28.1333 86.8566 27.5313 86.8566 26.822V22.328H88.1166V26.654C88.1166 27.41 88.308 27.9933 88.6906 28.404C89.0733 28.8053 89.596 29.006 90.2586 29.006C90.94 29.006 91.4766 28.796 91.8686 28.376C92.2606 27.956 92.4566 27.3447 92.4566 26.542V22.328H93.7306ZM97.1557 23.574C97.3797 23.1353 97.697 22.7947 98.1077 22.552C98.5277 22.3093 99.0364 22.188 99.6337 22.188V23.504H99.2977C97.8697 23.504 97.1557 24.2787 97.1557 25.828V30H95.8817V22.328H97.1557V23.574ZM111.837 25.87C111.837 26.1127 111.823 26.3693 111.795 26.64H105.663C105.709 27.396 105.966 27.9887 106.433 28.418C106.909 28.838 107.483 29.048 108.155 29.048C108.705 29.048 109.163 28.922 109.527 28.67C109.9 28.4087 110.161 28.0633 110.311 27.634H111.683C111.477 28.3713 111.067 28.9733 110.451 29.44C109.835 29.8973 109.069 30.126 108.155 30.126C107.427 30.126 106.773 29.9627 106.195 29.636C105.625 29.3093 105.177 28.8473 104.851 28.25C104.524 27.6433 104.361 26.9433 104.361 26.15C104.361 25.3567 104.519 24.6613 104.837 24.064C105.154 23.4667 105.597 23.0093 106.167 22.692C106.745 22.3653 107.408 22.202 108.155 22.202C108.883 22.202 109.527 22.3607 110.087 22.678C110.647 22.9953 111.076 23.434 111.375 23.994C111.683 24.5447 111.837 25.17 111.837 25.87ZM110.521 25.604C110.521 25.1187 110.413 24.7033 110.199 24.358C109.984 24.0033 109.69 23.7373 109.317 23.56C108.953 23.3733 108.547 23.28 108.099 23.28C107.455 23.28 106.904 23.4853 106.447 23.896C105.999 24.3067 105.742 24.876 105.677 25.604H110.521ZM122.744 22.188C123.342 22.188 123.874 22.314 124.34 22.566C124.807 22.8087 125.176 23.1773 125.446 23.672C125.717 24.1667 125.852 24.7687 125.852 25.478V30H124.592V25.66C124.592 24.8947 124.401 24.3113 124.018 23.91C123.645 23.4993 123.136 23.294 122.492 23.294C121.83 23.294 121.302 23.5087 120.91 23.938C120.518 24.358 120.322 24.9693 120.322 25.772V30H119.062V25.66C119.062 24.8947 118.871 24.3113 118.488 23.91C118.115 23.4993 117.606 23.294 116.962 23.294C116.3 23.294 115.772 23.5087 115.38 23.938C114.988 24.358 114.792 24.9693 114.792 25.772V30H113.518V22.328H114.792V23.434C115.044 23.0327 115.38 22.7247 115.8 22.51C116.23 22.2953 116.701 22.188 117.214 22.188C117.858 22.188 118.428 22.3327 118.922 22.622C119.417 22.9113 119.786 23.336 120.028 23.896C120.243 23.3547 120.598 22.9347 121.092 22.636C121.587 22.3373 122.138 22.188 122.744 22.188ZM127.466 26.136C127.466 25.352 127.625 24.666 127.942 24.078C128.26 23.4807 128.694 23.0187 129.244 22.692C129.804 22.3653 130.425 22.202 131.106 22.202C131.778 22.202 132.362 22.3467 132.856 22.636C133.351 22.9253 133.72 23.2893 133.962 23.728V22.328H135.25V30H133.962V28.572C133.71 29.02 133.332 29.3933 132.828 29.692C132.334 29.9813 131.755 30.126 131.092 30.126C130.411 30.126 129.795 29.958 129.244 29.622C128.694 29.286 128.26 28.8147 127.942 28.208C127.625 27.6013 127.466 26.9107 127.466 26.136ZM133.962 26.15C133.962 25.5713 133.846 25.0673 133.612 24.638C133.379 24.2087 133.062 23.882 132.66 23.658C132.268 23.4247 131.834 23.308 131.358 23.308C130.882 23.308 130.448 23.42 130.056 23.644C129.664 23.868 129.352 24.1947 129.118 24.624C128.885 25.0533 128.768 25.5573 128.768 26.136C128.768 26.724 128.885 27.2373 129.118 27.676C129.352 28.1053 129.664 28.4367 130.056 28.67C130.448 28.894 130.882 29.006 131.358 29.006C131.834 29.006 132.268 28.894 132.66 28.67C133.062 28.4367 133.379 28.1053 133.612 27.676C133.846 27.2373 133.962 26.7287 133.962 26.15ZM138.061 21.082C137.819 21.082 137.613 20.998 137.445 20.83C137.277 20.662 137.193 20.4567 137.193 20.214C137.193 19.9713 137.277 19.766 137.445 19.598C137.613 19.43 137.819 19.346 138.061 19.346C138.295 19.346 138.491 19.43 138.649 19.598C138.817 19.766 138.901 19.9713 138.901 20.214C138.901 20.4567 138.817 20.662 138.649 20.83C138.491 20.998 138.295 21.082 138.061 21.082ZM138.677 22.328V30H137.403V22.328H138.677ZM142.123 19.64V30H140.849V19.64H142.123ZM147.55 26.136C147.55 25.352 147.709 24.666 148.026 24.078C148.344 23.4807 148.778 23.0187 149.328 22.692C149.888 22.3653 150.509 22.202 151.19 22.202C151.862 22.202 152.446 22.3467 152.94 22.636C153.435 22.9253 153.804 23.2893 154.046 23.728V22.328H155.334V30H154.046V28.572C153.794 29.02 153.416 29.3933 152.912 29.692C152.418 29.9813 151.839 30.126 151.176 30.126C150.495 30.126 149.879 29.958 149.328 29.622C148.778 29.286 148.344 28.8147 148.026 28.208C147.709 27.6013 147.55 26.9107 147.55 26.136ZM154.046 26.15C154.046 25.5713 153.93 25.0673 153.696 24.638C153.463 24.2087 153.146 23.882 152.744 23.658C152.352 23.4247 151.918 23.308 151.442 23.308C150.966 23.308 150.532 23.42 150.14 23.644C149.748 23.868 149.436 24.1947 149.202 24.624C148.969 25.0533 148.852 25.5573 148.852 26.136C148.852 26.724 148.969 27.2373 149.202 27.676C149.436 28.1053 149.748 28.4367 150.14 28.67C150.532 28.894 150.966 29.006 151.442 29.006C151.918 29.006 152.352 28.894 152.744 28.67C153.146 28.4367 153.463 28.1053 153.696 27.676C153.93 27.2373 154.046 26.7287 154.046 26.15ZM157.011 26.136C157.011 25.352 157.17 24.666 157.487 24.078C157.805 23.4807 158.239 23.0187 158.789 22.692C159.349 22.3653 159.975 22.202 160.665 22.202C161.263 22.202 161.818 22.342 162.331 22.622C162.845 22.8927 163.237 23.252 163.507 23.7V19.64H164.795V30H163.507V28.558C163.255 29.0153 162.882 29.3933 162.387 29.692C161.893 29.9813 161.314 30.126 160.651 30.126C159.97 30.126 159.349 29.958 158.789 29.622C158.239 29.286 157.805 28.8147 157.487 28.208C157.17 27.6013 157.011 26.9107 157.011 26.136ZM163.507 26.15C163.507 25.5713 163.391 25.0673 163.157 24.638C162.924 24.2087 162.607 23.882 162.205 23.658C161.813 23.4247 161.379 23.308 160.903 23.308C160.427 23.308 159.993 23.42 159.601 23.644C159.209 23.868 158.897 24.1947 158.663 24.624C158.43 25.0533 158.313 25.5573 158.313 26.136C158.313 26.724 158.43 27.2373 158.663 27.676C158.897 28.1053 159.209 28.4367 159.601 28.67C159.993 28.894 160.427 29.006 160.903 29.006C161.379 29.006 161.813 28.894 162.205 28.67C162.607 28.4367 162.924 28.1053 163.157 27.676C163.391 27.2373 163.507 26.7287 163.507 26.15ZM166.472 26.136C166.472 25.352 166.631 24.666 166.948 24.078C167.265 23.4807 167.699 23.0187 168.25 22.692C168.81 22.3653 169.435 22.202 170.126 22.202C170.723 22.202 171.279 22.342 171.792 22.622C172.305 22.8927 172.697 23.252 172.968 23.7V19.64H174.256V30H172.968V28.558C172.716 29.0153 172.343 29.3933 171.848 29.692C171.353 29.9813 170.775 30.126 170.112 30.126C169.431 30.126 168.81 29.958 168.25 29.622C167.699 29.286 167.265 28.8147 166.948 28.208C166.631 27.6013 166.472 26.9107 166.472 26.136ZM172.968 26.15C172.968 25.5713 172.851 25.0673 172.618 24.638C172.385 24.2087 172.067 23.882 171.666 23.658C171.274 23.4247 170.84 23.308 170.364 23.308C169.888 23.308 169.454 23.42 169.062 23.644C168.67 23.868 168.357 24.1947 168.124 24.624C167.891 25.0533 167.774 25.5573 167.774 26.136C167.774 26.724 167.891 27.2373 168.124 27.676C168.357 28.1053 168.67 28.4367 169.062 28.67C169.454 28.894 169.888 29.006 170.364 29.006C170.84 29.006 171.274 28.894 171.666 28.67C172.067 28.4367 172.385 28.1053 172.618 27.676C172.851 27.2373 172.968 26.7287 172.968 26.15ZM177.683 23.574C177.907 23.1353 178.224 22.7947 178.635 22.552C179.055 22.3093 179.564 22.188 180.161 22.188V23.504H179.825C178.397 23.504 177.683 24.2787 177.683 25.828V30H176.409V22.328H177.683V23.574ZM188.632 25.87C188.632 26.1127 188.618 26.3693 188.59 26.64H182.458C182.504 27.396 182.761 27.9887 183.228 28.418C183.704 28.838 184.278 29.048 184.95 29.048C185.5 29.048 185.958 28.922 186.322 28.67C186.695 28.4087 186.956 28.0633 187.106 27.634H188.478C188.272 28.3713 187.862 28.9733 187.246 29.44C186.63 29.8973 185.864 30.126 184.95 30.126C184.222 30.126 183.568 29.9627 182.99 29.636C182.42 29.3093 181.972 28.8473 181.646 28.25C181.319 27.6433 181.156 26.9433 181.156 26.15C181.156 25.3567 181.314 24.6613 181.632 24.064C181.949 23.4667 182.392 23.0093 182.962 22.692C183.54 22.3653 184.203 22.202 184.95 22.202C185.678 22.202 186.322 22.3607 186.882 22.678C187.442 22.9953 187.871 23.434 188.17 23.994C188.478 24.5447 188.632 25.17 188.632 25.87ZM187.316 25.604C187.316 25.1187 187.208 24.7033 186.994 24.358C186.779 24.0033 186.485 23.7373 186.112 23.56C185.748 23.3733 185.342 23.28 184.894 23.28C184.25 23.28 183.699 23.4853 183.242 23.896C182.794 24.3067 182.537 24.876 182.472 25.604H187.316ZM193.029 30.126C192.441 30.126 191.914 30.028 191.447 29.832C190.981 29.6267 190.612 29.3467 190.341 28.992C190.071 28.628 189.921 28.2127 189.893 27.746H191.209C191.247 28.1287 191.424 28.4413 191.741 28.684C192.068 28.9267 192.493 29.048 193.015 29.048C193.501 29.048 193.883 28.9407 194.163 28.726C194.443 28.5113 194.583 28.2407 194.583 27.914C194.583 27.578 194.434 27.3307 194.135 27.172C193.837 27.004 193.375 26.8407 192.749 26.682C192.18 26.5327 191.713 26.3833 191.349 26.234C190.995 26.0753 190.687 25.8467 190.425 25.548C190.173 25.24 190.047 24.8387 190.047 24.344C190.047 23.952 190.164 23.5927 190.397 23.266C190.631 22.9393 190.962 22.6827 191.391 22.496C191.821 22.3 192.311 22.202 192.861 22.202C193.711 22.202 194.397 22.4167 194.919 22.846C195.442 23.2753 195.722 23.8633 195.759 24.61H194.485C194.457 24.2087 194.294 23.8867 193.995 23.644C193.706 23.4013 193.314 23.28 192.819 23.28C192.362 23.28 191.998 23.378 191.727 23.574C191.457 23.77 191.321 24.0267 191.321 24.344C191.321 24.596 191.401 24.806 191.559 24.974C191.727 25.1327 191.933 25.2633 192.175 25.366C192.427 25.4593 192.773 25.5667 193.211 25.688C193.762 25.8373 194.21 25.9867 194.555 26.136C194.901 26.276 195.195 26.4907 195.437 26.78C195.689 27.0693 195.82 27.4473 195.829 27.914C195.829 28.334 195.713 28.712 195.479 29.048C195.246 29.384 194.915 29.65 194.485 29.846C194.065 30.0327 193.58 30.126 193.029 30.126ZM200.344 30.126C199.756 30.126 199.228 30.028 198.762 29.832C198.295 29.6267 197.926 29.3467 197.656 28.992C197.385 28.628 197.236 28.2127 197.208 27.746H198.524C198.561 28.1287 198.738 28.4413 199.056 28.684C199.382 28.9267 199.807 29.048 200.33 29.048C200.815 29.048 201.198 28.9407 201.478 28.726C201.758 28.5113 201.898 28.2407 201.898 27.914C201.898 27.578 201.748 27.3307 201.45 27.172C201.151 27.004 200.689 26.8407 200.064 26.682C199.494 26.5327 199.028 26.3833 198.664 26.234C198.309 26.0753 198.001 25.8467 197.74 25.548C197.488 25.24 197.362 24.8387 197.362 24.344C197.362 23.952 197.478 23.5927 197.712 23.266C197.945 22.9393 198.276 22.6827 198.706 22.496C199.135 22.3 199.625 22.202 200.176 22.202C201.025 22.202 201.711 22.4167 202.234 22.846C202.756 23.2753 203.036 23.8633 203.074 24.61H201.8C201.772 24.2087 201.608 23.8867 201.31 23.644C201.02 23.4013 200.628 23.28 200.134 23.28C199.676 23.28 199.312 23.378 199.042 23.574C198.771 23.77 198.636 24.0267 198.636 24.344C198.636 24.596 198.715 24.806 198.874 24.974C199.042 25.1327 199.247 25.2633 199.49 25.366C199.742 25.4593 200.087 25.5667 200.526 25.688C201.076 25.8373 201.524 25.9867 201.87 26.136C202.215 26.276 202.509 26.4907 202.752 26.78C203.004 27.0693 203.134 27.4473 203.144 27.914C203.144 28.334 203.027 28.712 202.794 29.048C202.56 29.384 202.229 29.65 201.8 29.846C201.38 30.0327 200.894 30.126 200.344 30.126Z" fill="#1A0A03"/>
<rect x="0.5" y="0.5" width="525" height="50" rx="4.5" stroke="black" stroke-opacity="0.2"/>
<path d="M409 0H521C523.761 0 526 2.23858 526 5V46C526 48.7614 523.761 51 521 51H409V0Z" fill="#EE5514"/>
<path d="M453.291 30.098C452.638 30.098 452.05 29.986 451.527 29.762C451.004 29.5287 450.594 29.202 450.295 28.782C449.996 28.362 449.847 27.872 449.847 27.312H451.555C451.592 27.732 451.756 28.0773 452.045 28.348C452.344 28.6187 452.759 28.754 453.291 28.754C453.842 28.754 454.271 28.6233 454.579 28.362C454.887 28.0913 455.041 27.746 455.041 27.326C455.041 26.9993 454.943 26.7333 454.747 26.528C454.56 26.3227 454.322 26.164 454.033 26.052C453.753 25.94 453.361 25.8187 452.857 25.688C452.222 25.52 451.704 25.352 451.303 25.184C450.911 25.0067 450.575 24.736 450.295 24.372C450.015 24.008 449.875 23.5227 449.875 22.916C449.875 22.356 450.015 21.866 450.295 21.446C450.575 21.026 450.967 20.704 451.471 20.48C451.975 20.256 452.558 20.144 453.221 20.144C454.164 20.144 454.934 20.382 455.531 20.858C456.138 21.3247 456.474 21.9687 456.539 22.79H454.775C454.747 22.4353 454.579 22.132 454.271 21.88C453.963 21.628 453.557 21.502 453.053 21.502C452.596 21.502 452.222 21.6187 451.933 21.852C451.644 22.0853 451.499 22.4213 451.499 22.86C451.499 23.1587 451.588 23.406 451.765 23.602C451.952 23.7887 452.185 23.938 452.465 24.05C452.745 24.162 453.128 24.2833 453.613 24.414C454.257 24.5913 454.78 24.7687 455.181 24.946C455.592 25.1233 455.937 25.3987 456.217 25.772C456.506 26.136 456.651 26.626 456.651 27.242C456.651 27.7367 456.516 28.2033 456.245 28.642C455.984 29.0807 455.596 29.4353 455.083 29.706C454.579 29.9673 453.982 30.098 453.291 30.098ZM466.024 25.954C466.024 26.2433 466.006 26.5047 465.968 26.738H460.074C460.121 27.354 460.35 27.8487 460.76 28.222C461.171 28.5953 461.675 28.782 462.272 28.782C463.131 28.782 463.738 28.4227 464.092 27.704H465.814C465.581 28.4133 465.156 28.9967 464.54 29.454C463.934 29.902 463.178 30.126 462.272 30.126C461.535 30.126 460.872 29.9627 460.284 29.636C459.706 29.3 459.248 28.8333 458.912 28.236C458.586 27.6293 458.422 26.9293 458.422 26.136C458.422 25.3427 458.581 24.6473 458.898 24.05C459.225 23.4433 459.678 22.9767 460.256 22.65C460.844 22.3233 461.516 22.16 462.272 22.16C463 22.16 463.649 22.3187 464.218 22.636C464.788 22.9533 465.231 23.4013 465.548 23.98C465.866 24.5493 466.024 25.2073 466.024 25.954ZM464.358 25.45C464.349 24.862 464.139 24.3907 463.728 24.036C463.318 23.6813 462.809 23.504 462.202 23.504C461.652 23.504 461.18 23.6813 460.788 24.036C460.396 24.3813 460.163 24.8527 460.088 25.45H464.358ZM471.907 22.16C472.514 22.16 473.055 22.286 473.531 22.538C474.016 22.79 474.394 23.1633 474.665 23.658C474.936 24.1527 475.071 24.75 475.071 25.45V30H473.489V25.688C473.489 24.9973 473.316 24.47 472.971 24.106C472.626 23.7327 472.154 23.546 471.557 23.546C470.96 23.546 470.484 23.7327 470.129 24.106C469.784 24.47 469.611 24.9973 469.611 25.688V30H468.015V22.286H469.611V23.168C469.872 22.8507 470.204 22.6033 470.605 22.426C471.016 22.2487 471.45 22.16 471.907 22.16ZM476.995 26.108C476.995 25.3333 477.153 24.6473 477.471 24.05C477.797 23.4527 478.236 22.9907 478.787 22.664C479.347 22.328 479.967 22.16 480.649 22.16C481.153 22.16 481.647 22.272 482.133 22.496C482.627 22.7107 483.019 23 483.309 23.364V19.64H484.919V30H483.309V28.838C483.047 29.2113 482.683 29.5193 482.217 29.762C481.759 30.0047 481.232 30.126 480.635 30.126C479.963 30.126 479.347 29.958 478.787 29.622C478.236 29.2767 477.797 28.8007 477.471 28.194C477.153 27.578 476.995 26.8827 476.995 26.108ZM483.309 26.136C483.309 25.604 483.197 25.142 482.973 24.75C482.758 24.358 482.473 24.0593 482.119 23.854C481.764 23.6487 481.381 23.546 480.971 23.546C480.56 23.546 480.177 23.6487 479.823 23.854C479.468 24.05 479.179 24.344 478.955 24.736C478.74 25.1187 478.633 25.576 478.633 26.108C478.633 26.64 478.74 27.1067 478.955 27.508C479.179 27.9093 479.468 28.2173 479.823 28.432C480.187 28.6373 480.569 28.74 480.971 28.74C481.381 28.74 481.764 28.6373 482.119 28.432C482.473 28.2267 482.758 27.928 482.973 27.536C483.197 27.1347 483.309 26.668 483.309 26.136Z" fill="white"/>
</svg>
